<svg id="svg" version="1.1" xmlns="http://www.w3.org/2000/svg" xmlns:xlink="http://www.w3.org/1999/xlink" width="400" height="400" viewBox="0, 0, 400,400">
    <g id="svgg">
        <path id="path0" d="M88.000 34.057 C -31.579 115.227,-28.748 292.416,93.357 369.422 C 135.849 396.220,187.376 391.059,221.210 356.616 C 265.871 311.153,257.199 236.189,203.333 202.073 L 200.167 200.067 197.167 201.676 C 151.943 225.937,94.716 211.432,66.553 168.572 C 37.353 124.134,47.646 64.909,90.083 33.184 C 92.342 31.495,92.914 30.996,92.583 31.001 C 92.537 31.002,90.475 32.377,88.000 34.057 " stroke="none" fill="#5cdbf3" fill-rule="evenodd"></path>
        <path id="path1" d="M292.667 100.344 C 245.974 103.961,207.973 139.266,201.187 185.333 C 200.181 192.160,199.832 199.764,200.505 200.158 C 248.127 228.023,264.203 289.581,236.298 337.220 C 210.368 381.485,154.536 399.030,108.133 377.493 C 102.949 375.087,104.603 376.165,110.682 379.155 C 149.197 398.097,191.411 404.340,233.500 397.319 C 318.484 383.143,385.175 315.157,397.958 229.667 C 400.650 211.660,400.603 193.539,397.828 179.789 C 388.008 131.127,342.183 96.508,292.667 100.344 " stroke="none" fill="#3a4276" fill-rule="evenodd"></path>
        <path id="path2" d="M182.333 0.544 C 162.868 2.300,144.253 6.752,125.667 14.095 C 118.801 16.807,101.781 25.056,100.404 26.339 C 99.998 26.717,99.667 26.947,99.667 26.850 C 99.667 26.753,99.404 26.898,99.083 27.173 C 98.763 27.447,98.367 27.658,98.204 27.641 C 98.041 27.624,97.816 27.742,97.704 27.903 C 97.592 28.064,96.000 29.221,94.167 30.474 C 52.353 59.049,38.210 112.985,60.720 158.030 C 85.554 207.725,145.575 227.492,195.356 202.372 L 199.833 200.112 200.075 195.317 C 203.701 123.285,279.514 78.564,344.167 110.321 C 374.471 125.206,394.388 153.130,399.334 187.667 L 399.978 192.167 399.807 188.667 C 394.344 76.848,294.442 -9.570,182.333 0.544 " stroke="none" fill="#ffac30" fill-rule="evenodd"></path>
        <path id="path3" d="M50.084 106.833 C 50.088 107.567,50.156 107.827,50.236 107.413 C 50.315 106.998,50.312 106.398,50.229 106.079 C 50.146 105.761,50.080 106.100,50.084 106.833 M50.084 120.167 C 50.088 120.900,50.156 121.161,50.236 120.746 C 50.315 120.331,50.312 119.731,50.229 119.413 C 50.146 119.094,50.080 119.433,50.084 120.167 M142.417 213.230 C 142.737 213.314,143.262 213.314,143.583 213.230 C 143.904 213.146,143.642 213.077,143.000 213.077 C 142.358 213.077,142.096 213.146,142.417 213.230 M156.417 213.230 C 156.737 213.314,157.262 213.314,157.583 213.230 C 157.904 213.146,157.642 213.077,157.000 213.077 C 156.358 213.077,156.096 213.146,156.417 213.230 M249.751 280.500 C 249.754 281.233,249.823 281.494,249.902 281.079 C 249.982 280.665,249.979 280.065,249.896 279.746 C 249.812 279.427,249.747 279.767,249.751 280.500 M249.751 292.833 C 249.754 293.567,249.823 293.827,249.902 293.413 C 249.982 292.998,249.979 292.398,249.896 292.079 C 249.812 291.761,249.747 292.100,249.751 292.833 M220.494 357.417 L 217.167 360.833 220.583 357.506 C 222.463 355.676,224.000 354.139,224.000 354.090 C 224.000 353.848,223.584 354.243,220.494 357.417 M144.421 386.573 C 144.928 386.649,145.678 386.647,146.088 386.568 C 146.498 386.489,146.083 386.426,145.167 386.429 C 144.250 386.431,143.915 386.496,144.421 386.573 M153.755 386.573 C 154.261 386.649,155.011 386.647,155.421 386.568 C 155.831 386.489,155.417 386.426,154.500 386.429 C 153.583 386.431,153.248 386.496,153.755 386.573 " stroke="none" fill="#795c65" fill-rule="evenodd"></path>
        <path id="path4" d="M294.088 100.239 C 294.595 100.316,295.345 100.314,295.755 100.235 C 296.165 100.156,295.750 100.093,294.833 100.095 C 293.917 100.098,293.581 100.163,294.088 100.239 M304.421 100.239 C 304.928 100.316,305.678 100.314,306.088 100.235 C 306.498 100.156,306.083 100.093,305.167 100.095 C 304.250 100.098,303.915 100.163,304.421 100.239 M229.160 129.417 L 225.833 132.833 229.250 129.506 C 231.129 127.676,232.667 126.139,232.667 126.090 C 232.667 125.848,232.251 126.243,229.160 129.417 M370.500 129.333 C 372.326 131.167,373.896 132.667,373.987 132.667 C 374.079 132.667,372.660 131.167,370.833 129.333 C 369.007 127.500,367.438 126.000,367.346 126.000 C 367.254 126.000,368.674 127.500,370.500 129.333 M399.767 193.667 C 399.767 194.675,399.829 195.088,399.905 194.583 C 399.982 194.079,399.982 193.254,399.905 192.750 C 399.829 192.246,399.767 192.658,399.767 193.667 M200.095 194.833 C 200.098 195.750,200.163 196.085,200.239 195.579 C 200.316 195.072,200.314 194.322,200.235 193.912 C 200.156 193.502,200.093 193.917,200.095 194.833 " stroke="none" fill="#e26d2e" fill-rule="evenodd"></path></g></svg>